<svg aria-hidden="true" style="position: absolute; width: 0; height: 0; overflow: hidden;" version="1.1" xmlns="http://www.w3.org/2000/svg" xmlns:xlink="http://www.w3.org/1999/xlink">
<defs>
<symbol id="icon-logo" viewBox="0 0 31 28">
<path d="M15.636 4.010c-3.030-3.577-8.082-4.539-11.878-1.264s-4.33 8.752-1.349 12.626c1.909 2.481 6.799 7.083 10.068 10.070 1.086 0.993 1.629 1.489 2.28 1.688 0.559 0.171 1.198 0.171 1.758 0 0.651-0.199 1.194-0.696 2.28-1.688 3.269-2.988 8.159-7.589 10.068-10.070 2.981-3.874 2.512-9.385-1.349-12.626s-8.848-2.313-11.878 1.264z"></path>
</symbol>
<symbol id="icon-cross" viewBox="0 0 28 28">
<path fill="none" stroke-linejoin="round" stroke-linecap="round" stroke-miterlimit="4" stroke-width="2.5455" d="M22.166 5.833l-16.333 16.333M5.833 5.833l16.333 16.333"></path>
</symbol>
<symbol id="icon-check" viewBox="0 0 28 28">
<path fill="none" stroke-linejoin="round" stroke-linecap="round" stroke-miterlimit="4" stroke-width="1.9091" d="M23.334 8.167l-12.833 12.833-5.833-5.833"></path>
</symbol>
<symbol id="icon-chevron-down" viewBox="0 0 28 28">
<path stroke-linejoin="round" stroke-linecap="round" stroke-miterlimit="4" stroke-width="3.1111" d="M7 10.5l7 7 7-7"></path>
</symbol>
<symbol id="icon-eye-off" viewBox="0 0 28 28">
<path fill="none" stroke-linejoin="round" stroke-linecap="round" stroke-miterlimit="4" stroke-width="2.5455" d="M20.932 20.93c-1.994 1.52-4.423 2.362-6.93 2.403-8.167 0-12.833-9.333-12.833-9.333 1.451-2.704 3.464-5.067 5.903-6.93M11.552 4.947c0.803-0.188 1.625-0.282 2.45-0.28 8.167 0 12.833 9.333 12.833 9.333-0.708 1.325-1.553 2.572-2.52 3.722M16.475 16.473c-0.32 0.344-0.707 0.62-1.136 0.811s-0.893 0.294-1.363 0.303c-0.47 0.008-0.937-0.078-1.373-0.254s-0.832-0.438-1.164-0.77c-0.332-0.332-0.594-0.728-0.77-1.164s-0.262-0.903-0.254-1.373c0.008-0.47 0.111-0.933 0.302-1.363s0.467-0.816 0.811-1.136"></path>
<path fill="none" stroke-linejoin="round" stroke-linecap="round" stroke-miterlimit="4" stroke-width="2.5455" d="M1.168 1.167l25.667 25.667"></path>
</symbol>
<symbol id="icon-eye-on" viewBox="0 0 28 28">
<path fill="none" stroke-linejoin="round" stroke-linecap="round" stroke-miterlimit="4" stroke-width="2.5455" d="M1.166 14c0 0 4.667-9.333 12.833-9.333s12.833 9.333 12.833 9.333-4.667 9.333-12.833 9.333c-8.167 0-12.833-9.333-12.833-9.333z"></path>
<path fill="none" stroke-linejoin="round" stroke-linecap="round" stroke-miterlimit="4" stroke-width="2.5455" d="M14 17.5c1.933 0 3.5-1.567 3.5-3.5s-1.567-3.5-3.5-3.5c-1.933 0-3.5 1.567-3.5 3.5s1.567 3.5 3.5 3.5z"></path>
</symbol>
<symbol id="icon-search" viewBox="0 0 28 28">
<path stroke-linejoin="round" stroke-linecap="round" stroke-miterlimit="4" stroke-width="3.1111" d="M12.833 22.167c5.155 0 9.333-4.179 9.333-9.333s-4.179-9.333-9.333-9.333c-5.155 0-9.333 4.179-9.333 9.333s4.179 9.333 9.333 9.333z"></path>
<path stroke-linejoin="round" stroke-linecap="round" stroke-miterlimit="4" stroke-width="3.1111" d="M24.501 24.5l-5.075-5.075"></path>
</symbol>
<symbol id="icon-duomale" viewBox="0 0 28 28">
<path d="M10.233 9.036c-0.837-0.327-1.759-0.368-2.622-0.118s-1.62 0.779-2.152 1.503c-0.532 0.724-0.81 1.604-0.792 2.503s0.334 1.766 0.896 2.467 1.34 1.197 2.213 1.411c0.873 0.214 1.792 0.134 2.615-0.228s1.503-0.985 1.935-1.773c0.432-0.788 0.592-1.697 0.455-2.585-0.012-0.076-0.008-0.153 0.010-0.227s0.051-0.144 0.096-0.206c0.045-0.062 0.102-0.114 0.168-0.154s0.138-0.066 0.214-0.078 0.153-0.008 0.227 0.010c0.074 0.018 0.144 0.051 0.206 0.096s0.114 0.102 0.154 0.168c0.040 0.065 0.066 0.138 0.078 0.214 0.176 1.142-0.030 2.31-0.586 3.323s-1.431 1.814-2.488 2.279c-1.058 0.465-2.24 0.568-3.362 0.293s-2.122-0.913-2.845-1.815c-0.723-0.902-1.128-2.017-1.152-3.172s0.333-2.286 1.018-3.218 1.657-1.611 2.766-1.933c1.11-0.322 2.295-0.269 3.371 0.151 0.072 0.027 0.138 0.068 0.195 0.121s0.101 0.116 0.133 0.187c0.031 0.070 0.049 0.147 0.051 0.224s-0.012 0.154-0.040 0.226c-0.028 0.072-0.070 0.138-0.124 0.193s-0.118 0.1-0.189 0.13c-0.071 0.031-0.147 0.047-0.224 0.048s-0.154-0.013-0.225-0.042z"></path>
<path d="M8.164 22.75v-4.665c0-0.155 0.061-0.303 0.171-0.412s0.258-0.171 0.412-0.171c0.155 0 0.303 0.061 0.412 0.171s0.171 0.258 0.171 0.412v4.665c0 0.155-0.061 0.303-0.171 0.412s-0.258 0.171-0.412 0.171c-0.155 0-0.303-0.061-0.412-0.171s-0.171-0.258-0.171-0.412z"></path>
<path d="M6.416 19.835c0-0.155 0.061-0.303 0.171-0.412s0.258-0.171 0.412-0.171h3.499c0.155 0 0.303 0.061 0.412 0.171s0.171 0.258 0.171 0.412c0 0.155-0.061 0.303-0.171 0.412s-0.258 0.171-0.412 0.171h-3.499c-0.155 0-0.303-0.061-0.412-0.171s-0.171-0.258-0.171-0.412zM16.854 8.909c-0.646-0.182-1.327-0.203-1.983-0.059s-1.266 0.447-1.777 0.883-0.906 0.991-1.15 1.617c-0.245 0.625-0.331 1.301-0.252 1.968 0.009 0.076 0.004 0.154-0.017 0.228s-0.055 0.143-0.103 0.204c-0.047 0.060-0.106 0.111-0.173 0.149s-0.141 0.062-0.217 0.071c-0.076 0.009-0.154 0.003-0.228-0.018s-0.143-0.056-0.203-0.104-0.11-0.107-0.148-0.174c-0.037-0.067-0.061-0.141-0.070-0.217-0.136-1.147 0.11-2.308 0.701-3.301s1.493-1.764 2.566-2.192c1.073-0.428 2.258-0.49 3.37-0.176s2.090 0.986 2.781 1.912c0.691 0.926 1.057 2.055 1.041 3.21s-0.413 2.273-1.129 3.18-1.711 1.552-2.832 1.836c-1.12 0.283-2.303 0.189-3.364-0.268-0.070-0.030-0.134-0.074-0.187-0.129s-0.095-0.12-0.124-0.191c-0.057-0.144-0.055-0.304 0.006-0.446s0.176-0.254 0.32-0.311c0.144-0.057 0.304-0.055 0.446 0.006 0.513 0.221 1.066 0.334 1.625 0.333s1.111-0.117 1.623-0.341c0.512-0.223 0.973-0.55 1.354-0.958s0.674-0.891 0.861-1.418c0.187-0.526 0.264-1.086 0.226-1.643s-0.19-1.101-0.446-1.597-0.612-0.934-1.045-1.288c-0.433-0.353-0.933-0.614-1.471-0.766z"></path>
<path d="M19.123 10.043c-0.109-0.109-0.171-0.258-0.171-0.412s0.061-0.303 0.171-0.412l4.373-4.373c0.054-0.056 0.118-0.1 0.189-0.131s0.148-0.047 0.225-0.047c0.077-0.001 0.154 0.014 0.226 0.043s0.137 0.073 0.191 0.127c0.055 0.055 0.098 0.12 0.127 0.192s0.044 0.148 0.043 0.226c-0.001 0.077-0.017 0.154-0.047 0.225s-0.075 0.135-0.131 0.189l-4.373 4.373c-0.109 0.109-0.258 0.171-0.412 0.171s-0.303-0.061-0.412-0.171z"></path>
<path d="M23.864 8.756c-0.077-0.001-0.152-0.017-0.223-0.047s-0.134-0.074-0.187-0.129c-0.053-0.055-0.096-0.12-0.124-0.191s-0.042-0.147-0.041-0.224l0.029-2.317-2.317 0.029c-0.155 0.002-0.304-0.058-0.415-0.165s-0.174-0.255-0.176-0.41 0.058-0.304 0.165-0.415c0.108-0.111 0.255-0.174 0.41-0.176l3.514-0.044-0.044 3.514c-0.001 0.077-0.017 0.152-0.047 0.223s-0.074 0.134-0.129 0.188c-0.055 0.053-0.12 0.096-0.191 0.124s-0.147 0.042-0.224 0.041z"></path>
</symbol>
<symbol id="icon-female" viewBox="0 0 28 28">
<path fill="none" stroke-linejoin="round" stroke-linecap="round" stroke-miterlimit="4" stroke-width="1.75" d="M14 15.167c3.222 0 5.833-2.612 5.833-5.833s-2.612-5.833-5.833-5.833c-3.222 0-5.833 2.612-5.833 5.833s2.612 5.833 5.833 5.833zM14 15.167v9.333M10.5 21h7"></path>
</symbol>
<symbol id="icon-male" viewBox="0 0 28 28">
<path fill="none" stroke-linejoin="round" stroke-linecap="round" stroke-miterlimit="4" stroke-width="1.75" d="M14 12.833c-3.222 0-5.833 2.612-5.833 5.833s2.612 5.833 5.833 5.833c3.222 0 5.833-2.612 5.833-5.833s-2.612-5.833-5.833-5.833zM14 12.833v-9.333M14 3.5l4.667 4.667M14 3.5l-4.667 4.667"></path>
</symbol>
<symbol id="icon-star" viewBox="0 0 28 28">
<path stroke-linejoin="miter" stroke-linecap="butt" stroke-miterlimit="4" stroke-width="2.1" d="M10.85 8.22l3.15-5.97 3.15 5.97c0.279 0.528 0.786 0.897 1.374 0.999l6.651 1.151-4.704 4.84c-0.416 0.428-0.61 1.025-0.525 1.616l0.961 6.681-6.057-2.978c-0.536-0.264-1.163-0.263-1.699 0l-6.057 2.978 0.961-6.681c0.085-0.591-0.109-1.188-0.525-1.616l-4.704-4.84 6.651-1.151c0.588-0.102 1.096-0.471 1.374-0.999zM25.406 10.131v0zM6.796 23.652c0 0 0 0 0 0h-0z"></path>
</symbol>
<symbol id="icon-calendar" viewBox="0 0 28 28">
<path stroke-linejoin="round" stroke-linecap="round" stroke-miterlimit="4" stroke-width="2.52" d="M22.167 4.667h-16.333c-1.289 0-2.333 1.045-2.333 2.333v16.333c0 1.289 1.045 2.333 2.333 2.333h16.333c1.289 0 2.333-1.045 2.333-2.333v-16.333c0-1.289-1.045-2.333-2.333-2.333z"></path>
<path stroke-linejoin="round" stroke-linecap="round" stroke-miterlimit="4" stroke-width="2.52" d="M18.666 2.333v4.667"></path>
<path stroke-linejoin="round" stroke-linecap="round" stroke-miterlimit="4" stroke-width="2.52" d="M9.334 2.333v4.667"></path>
<path stroke-linejoin="round" stroke-linecap="round" stroke-miterlimit="4" stroke-width="2.52" d="M3.5 11.667h21"></path>
</symbol>
<symbol id="icon-chevron-left" viewBox="0 0 28 28">
<path d="M12.368 14.828c-0.109-0.108-0.196-0.238-0.255-0.38s-0.090-0.295-0.090-0.449 0.031-0.306 0.090-0.449c0.059-0.142 0.146-0.271 0.255-0.38l5.355-5.343c0.109-0.108 0.196-0.237 0.255-0.38s0.090-0.295 0.090-0.449-0.030-0.306-0.090-0.449c-0.059-0.142-0.146-0.271-0.255-0.38-0.219-0.217-0.514-0.339-0.823-0.339s-0.604 0.122-0.823 0.339l-5.355 5.355c-0.655 0.656-1.024 1.546-1.024 2.473s0.368 1.817 1.024 2.473l5.355 5.355c0.217 0.216 0.511 0.337 0.817 0.338 0.154 0.001 0.306-0.028 0.448-0.087s0.271-0.144 0.38-0.252c0.109-0.108 0.196-0.237 0.255-0.38s0.090-0.295 0.090-0.449-0.030-0.306-0.090-0.449c-0.059-0.142-0.146-0.271-0.255-0.38l-5.355-5.343z"></path>
</symbol>
<symbol id="icon-chevron-right" viewBox="0 0 25 28">
<path d="M13.896 13.181c0.097-0.096 0.174-0.211 0.227-0.338s0.080-0.262 0.080-0.399-0.027-0.272-0.080-0.399c-0.053-0.126-0.13-0.241-0.227-0.337l-4.76-4.75c-0.097-0.096-0.174-0.211-0.227-0.337s-0.080-0.262-0.080-0.399c0-0.137 0.027-0.272 0.080-0.399s0.13-0.241 0.227-0.337c0.194-0.193 0.457-0.302 0.731-0.302s0.537 0.108 0.731 0.302l4.76 4.76c0.583 0.583 0.91 1.374 0.91 2.199s-0.327 1.615-0.91 2.199l-4.76 4.76c-0.193 0.192-0.454 0.3-0.726 0.301-0.136 0.001-0.272-0.025-0.398-0.077s-0.241-0.128-0.338-0.224c-0.097-0.096-0.174-0.211-0.227-0.337s-0.080-0.262-0.080-0.399 0.027-0.272 0.080-0.399c0.053-0.126 0.13-0.241 0.227-0.337l4.76-4.75z"></path>
</symbol>
<symbol id="icon-heart" viewBox="0 0 28 28">
<path stroke-linejoin="round" stroke-linecap="round" stroke-miterlimit="4" stroke-width="2.3333" d="M24.314 5.378c-0.596-0.596-1.303-1.069-2.082-1.392s-1.613-0.489-2.456-0.489c-0.843 0-1.678 0.166-2.456 0.489s-1.486 0.796-2.082 1.392l-1.237 1.237-1.237-1.237c-1.204-1.204-2.836-1.88-4.538-1.88s-3.335 0.676-4.538 1.88c-1.204 1.204-1.88 2.836-1.88 4.538s0.676 3.335 1.88 4.538l10.313 10.313 10.313-10.313c0.596-0.596 1.069-1.303 1.392-2.082s0.489-1.613 0.489-2.456-0.166-1.678-0.489-2.456c-0.323-0.779-0.796-1.486-1.392-2.082z"></path>
</symbol>
<symbol id="icon-edit" viewBox="0 0 28 28">
<path fill="none" stroke-linejoin="round" stroke-linecap="round" stroke-miterlimit="4" stroke-width="2.3333" d="M19.833 3.5c0.306-0.306 0.67-0.549 1.071-0.715s0.829-0.251 1.263-0.251c0.433 0 0.862 0.085 1.263 0.251s0.764 0.409 1.071 0.715c0.306 0.306 0.549 0.67 0.715 1.071s0.251 0.829 0.251 1.263c0 0.433-0.085 0.862-0.251 1.263s-0.409 0.764-0.715 1.071l-15.75 15.75-6.417 1.75 1.75-6.417 15.75-15.75z"></path>
</symbol>
<symbol id="icon-user" viewBox="0 0 28 28">
<path  stroke-linejoin="round" stroke-linecap="round" stroke-miterlimit="4" stroke-width="2.3333" d="M14 17.5c-3.698 0-6.987 1.786-9.081 4.557-0.451 0.596-0.676 0.895-0.669 1.298 0.006 0.311 0.201 0.704 0.446 0.896 0.317 0.249 0.757 0.249 1.636 0.249h15.336c0.879 0 1.318 0 1.636-0.249 0.245-0.192 0.441-0.585 0.446-0.896 0.007-0.403-0.218-0.701-0.669-1.298-2.094-2.771-5.383-4.557-9.081-4.557z"></path>
<path  stroke-linejoin="round" stroke-linecap="round" stroke-miterlimit="4" stroke-width="2.3333" d="M14 14c2.9 0 5.25-2.35 5.25-5.25s-2.35-5.25-5.25-5.25c-2.9 0-5.25 2.35-5.25 5.25s2.35 5.25 5.25 5.25z"></path>
</symbol>
<symbol id="icon-menu" viewBox="0 0 28 28">
<path stroke-linejoin="round" stroke-linecap="round" stroke-miterlimit="4" stroke-width="2.3333" d="M3.5 14h21"></path>
<path stroke-linejoin="round" stroke-linecap="round" stroke-miterlimit="4" stroke-width="2.3333" d="M3.5 7h21"></path>
<path stroke-linejoin="round" stroke-linecap="round" stroke-miterlimit="4" stroke-width="2.3333" d="M3.5 21h21"></path>
</symbol>
<symbol id="icon-paw" viewBox="0 0 32 32">
<path d="M12.5 5c-1.070 0-2.002 0.608-2.594 1.438s-0.906 1.902-0.906 3.062c0 1.16 0.314 2.233 0.906 3.063s1.524 1.437 2.594 1.437c1.070 0 2.002-0.608 2.594-1.438s0.906-1.902 0.906-3.062c0-1.16-0.314-2.233-0.906-3.063s-1.524-1.437-2.594-1.437zM16 9.5c0 1.16 0.314 2.233 0.906 3.063s1.525 1.437 2.594 1.437c1.070 0 2.002-0.608 2.594-1.438s0.906-1.902 0.906-3.062c0-1.16-0.314-2.233-0.906-3.063s-1.524-1.437-2.594-1.437c-1.070 0-2.002 0.608-2.594 1.438s-0.906 1.902-0.906 3.062zM12.5 7c0.312 0 0.656 0.156 0.97 0.594 0.31 0.437 0.53 1.133 0.53 1.906s-0.22 1.47-0.53 1.906c-0.314 0.438-0.658 0.594-0.97 0.594s-0.656-0.156-0.97-0.594c-0.31-0.437-0.53-1.133-0.53-1.906s0.22-1.47 0.53-1.906c0.314-0.438 0.658-0.594 0.97-0.594zM19.5 7c0.312 0 0.656 0.156 0.97 0.594 0.31 0.437 0.53 1.133 0.53 1.906s-0.22 1.47-0.53 1.906c-0.314 0.438-0.658 0.594-0.97 0.594s-0.656-0.156-0.97-0.594c-0.31-0.437-0.53-1.133-0.53-1.906s0.22-1.47 0.53-1.906c0.314-0.438 0.658-0.594 0.97-0.594zM7.5 12c-1.070 0-2.002 0.608-2.594 1.438s-0.906 1.902-0.906 3.062c0 1.16 0.314 2.233 0.906 3.063s1.524 1.437 2.594 1.437c1.070 0 2.002-0.608 2.594-1.438s0.906-1.902 0.906-3.062c0-1.16-0.314-2.233-0.906-3.063s-1.524-1.437-2.594-1.437zM24.5 12c-1.070 0-2.002 0.608-2.594 1.438s-0.906 1.902-0.906 3.062c0 1.16 0.314 2.233 0.906 3.063s1.524 1.437 2.594 1.437c1.070 0 2.002-0.608 2.594-1.438s0.906-1.902 0.906-3.062c0-1.16-0.314-2.233-0.906-3.063s-1.524-1.437-2.594-1.437zM7.5 14c0.312 0 0.656 0.156 0.97 0.594 0.31 0.437 0.53 1.133 0.53 1.906s-0.22 1.47-0.53 1.906c-0.314 0.438-0.658 0.594-0.97 0.594s-0.656-0.156-0.97-0.594c-0.31-0.436-0.53-1.133-0.53-1.906s0.22-1.47 0.53-1.906c0.314-0.438 0.658-0.594 0.97-0.594zM24.5 14c0.312 0 0.656 0.156 0.97 0.594 0.31 0.437 0.53 1.133 0.53 1.906s-0.22 1.47-0.53 1.906c-0.314 0.438-0.658 0.594-0.97 0.594s-0.656-0.156-0.97-0.594c-0.31-0.437-0.53-1.133-0.53-1.906s0.22-1.47 0.53-1.906c0.314-0.438 0.658-0.594 0.97-0.594zM16 16c-1.333 0-2.263 0.865-2.72 1.625-0.454 0.76-0.734 1.392-1 1.656-0.153 0.157-1.118 0.52-2.124 1.033-0.503 0.257-1.010 0.6-1.437 1.125-0.43 0.525-0.72 1.25-0.72 2.063 0 1.92 1.58 3.5 3.5 3.5 0.866 0 1.77-0.28 2.655-0.53 0.889-0.256 1.846-0.472 1.846-0.472s0.957 0.216 1.844 0.47c0.886 0.25 1.79 0.53 2.656 0.53 1.92 0 3.5-1.58 3.5-3.5 0-0.794-0.293-1.52-0.72-2.030-0.425-0.513-0.937-0.83-1.436-1.095-1-0.53-1.983-0.95-2.125-1.094-0.24-0.237-0.51-0.89-0.97-1.654-0.459-0.767-1.409-1.627-2.749-1.627zM16 18c0.66 0 0.733 0.16 1.030 0.656 0.3 0.495 0.524 1.336 1.25 2.063 0.825 0.82 1.867 1 2.626 1.404 0.38 0.202 0.67 0.417 0.844 0.625 0.173 0.207 0.25 0.396 0.25 0.75 0 0.84-0.66 1.5-1.5 1.5-0.29 0-1.224-0.22-2.094-0.47-0.87-0.247-1.59-0.53-2.406-0.53s-1.536 0.283-2.406 0.53c-0.87 0.25-1.804 0.47-2.094 0.47-0.84 0-1.5-0.66-1.5-1.5 0-0.403 0.084-0.61 0.25-0.814 0.166-0.203 0.472-0.404 0.844-0.593 0.744-0.38 1.78-0.53 2.625-1.375 0.733-0.737 0.953-1.605 1.25-2.095 0.292-0.49 0.362-0.625 1.030-0.625l0.001 0.004z"></path>
</symbol>
<symbol id="icon-upload" viewBox="0 0 32 32">
<path stroke-linejoin="round" stroke-linecap="round" stroke-miterlimit="4" stroke-width="2" d="M16 16v12"></path>
<path stroke-linejoin="round" stroke-linecap="round" stroke-miterlimit="4" stroke-width="2" d="M27.189 24.52c1.3-0.709 2.328-1.831 2.92-3.189s0.715-2.874 0.35-4.309-1.198-2.708-2.367-3.618c-1.169-0.909-2.608-1.404-4.089-1.405h-1.68c-0.403-1.561-1.156-3.010-2.2-4.239s-2.353-2.204-3.829-2.854-3.079-0.956-4.691-0.897c-1.611 0.059-3.188 0.483-4.612 1.24s-2.658 1.826-3.609 3.128c-0.951 1.302-1.595 2.803-1.882 4.389s-0.212 3.218 0.222 4.77c0.433 1.553 1.213 2.988 2.281 4.196"></path>
<path stroke-linejoin="round" stroke-linecap="round" stroke-miterlimit="4" stroke-width="2" d="M21.335 21.333l-5.333-5.333-5.333 5.333"></path>
</symbol>
<symbol id="icon-trash" viewBox="0 0 32 32">
<path stroke-linejoin="round" stroke-linecap="round" stroke-miterlimit="4" stroke-width="2.6667" d="M4 8h24"></path>
<path stroke-linejoin="round" stroke-linecap="round" stroke-miterlimit="4" stroke-width="2.6667" d="M25.333 8v18.667c0 0.707-0.281 1.386-0.781 1.886s-1.178 0.781-1.886 0.781h-13.333c-0.707 0-1.386-0.281-1.886-0.781s-0.781-1.178-0.781-1.886v-18.667M10.667 8v-2.667c0-0.707 0.281-1.386 0.781-1.886s1.178-0.781 1.886-0.781h5.333c0.707 0 1.386 0.281 1.886 0.781s0.781 1.178 0.781 1.886v2.667"></path>
<path stroke-linejoin="round" stroke-linecap="round" stroke-miterlimit="4" stroke-width="2.6667" d="M13.333 14.667v8"></path>
<path stroke-linejoin="round" stroke-linecap="round" stroke-miterlimit="4" stroke-width="2.6667" d="M18.667 14.667v8"></path>
</symbol>
</defs>
</svg>
